<svg xmlns="http://www.w3.org/2000/svg" version="1.1" xmlns:xlink="http://www.w3.org/1999/xlink" width="200" height="200"><svg xmlns="http://www.w3.org/2000/svg" version="1.1" xmlns:xlink="http://www.w3.org/1999/xlink" viewBox="0 0 200 200"><rect width="200" height="200" fill="url('#gradient')"></rect><defs><linearGradient id="SvgjsLinearGradient1001" gradientTransform="rotate(45 0.5 0.5)"><stop offset="0%" stop-color="#2c5664"></stop><stop offset="100%" stop-color="#1e315e"></stop></linearGradient></defs><g><g fill="#f0611c" transform="matrix(7.48051948051948,0,0,7.48051948051948,1.9673241067242344,153.1858693717362)" stroke="#fba70b" stroke-width="0.2"><path d="M8.87 0L6.36-5.02L4.50-5.02L4.50 0L1.07 0L1.07-14.22L6.67-14.22Q9.20-14.22 10.63-13.10Q12.05-11.97 12.05-9.92L12.05-9.92Q12.05-8.44 11.45-7.46Q10.85-6.48 9.57-5.88L9.57-5.88L12.54-0.15L12.54 0L8.87 0ZM4.50-11.57L4.50-7.67L6.67-7.67Q7.65-7.67 8.14-8.18Q8.63-8.69 8.63-9.61Q8.63-10.53 8.13-11.05Q7.64-11.57 6.67-11.57L6.67-11.57L4.50-11.57ZM19.89 0L14.12 0L14.12-14.22L19.23-14.22Q21.97-14.22 23.40-13.21Q24.83-12.21 24.83-10.29L24.83-10.29Q24.83-9.19 24.33-8.41Q23.82-7.63 22.83-7.26L22.83-7.26Q23.95-6.96 24.54-6.16Q25.14-5.36 25.14-4.21L25.14-4.21Q25.14-2.12 23.81-1.07Q22.49-0.02 19.89 0L19.89 0ZM19.95-6.04L17.55-6.04L17.55-2.64L19.79-2.64Q20.72-2.64 21.22-3.06Q21.72-3.49 21.72-4.26L21.72-4.26Q21.72-6.04 19.95-6.04L19.95-6.04ZM17.55-11.57L17.55-8.29L19.34-8.29Q20.46-8.30 20.94-8.70Q21.42-9.10 21.42-9.88L21.42-9.88Q21.42-10.78 20.90-11.18Q20.38-11.57 19.23-11.57L19.23-11.57L17.55-11.57Z"></path></g></g></svg><style>@media (prefers-color-scheme: light) { :root { filter: none; } }
@media (prefers-color-scheme: dark) { :root { filter: none; } }
</style></svg>